<?xml version="1.0" standalone="no"?>
<!DOCTYPE svg PUBLIC "-//W3C//DTD SVG 20010904//EN"
 "http://www.w3.org/TR/2001/REC-SVG-20010904/DTD/svg10.dtd">
<svg width="189" height="188" viewBox="0 0 189 188" fill="none" xmlns="http://www.w3.org/2000/svg">
<path d="M137.008 157.457L135.918 155.584C133.403 156.722 132.431 157.667 131.081 159.619V155.584H129.173V177.565H131.081V165.601L131.217 164.304L131.626 163.151C133.052 159.891 134.167 158.546 137.008 157.457Z" fill="#6F3D26"/>
<path d="M104.29 149.953C104.538 150.151 105.456 147.831 105.456 147.831C104.415 146.649 102.714 146.797 101.905 146.797C101.035 146.797 100.197 146.981 99.5781 147.389C98.9708 147.783 98.6157 148.388 98.3537 149.046C98.1039 149.703 97.9864 150.703 97.9864 152.242V155.674L95.6536 155.674V158.042H97.9864V177.525H100.435V158.042H104.476V155.674H100.435V152.715C100.435 151.492 100.474 150.742 100.558 150.466C100.641 150.177 100.848 149.966 101.17 149.756C101.491 149.532 101.906 149.401 102.394 149.401C103.049 149.401 103.597 149.401 104.29 149.953Z" fill="#6F3D26"/>
<path d="M140.963 147.389H138.515V177.69H140.963V147.389Z" fill="#6F3D26"/>
<path fill-rule="evenodd" clip-rule="evenodd" d="M115.985 155.082C118.974 155.082 121.49 156.24 123.454 158.633C125.24 160.817 126.148 163.46 126.148 166.445C126.148 169.444 125.102 172.009 123.209 174.257C121.328 176.493 118.95 177.69 115.985 177.69C113.009 177.69 110.532 176.493 108.639 174.257C106.757 172.009 105.823 169.444 105.823 166.445C105.823 163.473 106.731 160.935 108.516 158.752C110.481 156.345 112.985 155.082 115.985 155.082ZM110.598 160.29C112.086 158.594 113.914 157.805 115.985 157.805C118.045 157.805 119.884 158.594 121.373 160.29C122.873 161.987 123.577 164.039 123.577 166.445C123.577 167.997 123.276 169.483 122.597 170.825C121.918 172.166 120.936 173.166 119.781 173.902C118.626 174.626 117.366 175.086 115.985 175.086C114.604 175.086 113.345 174.626 112.19 173.902C111.035 173.166 110.174 172.166 109.496 170.825C108.817 169.483 108.394 167.997 108.394 166.445C108.394 164.039 109.11 161.987 110.598 160.29Z" fill="#6F3D26"/>
<path fill-rule="evenodd" clip-rule="evenodd" d="M164.105 155.082V177.69H161.534V173.429C160.486 174.836 159.415 175.915 158.105 176.625C156.807 177.335 155.368 177.69 153.82 177.69C151.069 177.69 148.671 176.572 146.718 174.376C144.777 172.166 143.78 169.483 143.78 166.327C143.78 163.236 144.753 160.593 146.718 158.397C148.683 156.2 151.057 155.082 153.82 155.082C155.415 155.082 156.942 155.516 158.228 156.266C159.526 157.016 160.557 158.081 161.534 159.58V155.082H164.105ZM150.147 158.87C151.325 158.108 152.672 157.805 154.065 157.805C156.232 157.805 158.098 158.62 159.575 160.29C161.063 161.961 161.778 163.96 161.778 166.445C161.778 168.076 161.466 169.523 160.799 170.825C160.144 172.127 159.209 173.258 157.983 174.021C156.757 174.783 155.434 175.086 154.065 175.086C152.707 175.086 151.46 174.783 150.269 174.021C149.09 173.245 148.155 172.087 147.453 170.706C146.75 169.325 146.351 167.958 146.351 166.445C146.351 164.92 146.64 163.433 147.33 162.066C148.033 160.698 148.968 159.62 150.147 158.87Z" fill="#6F3D26"/>
<path fill-rule="evenodd" clip-rule="evenodd" d="M184.92 155.371H187.491V173.007C187.491 176.019 187.482 177.176 187.005 178.57C186.35 180.543 185.895 181.086 184.276 182.152C182.655 183.217 180.795 183.691 178.521 183.691C176.854 183.691 175.324 183.388 173.991 182.862C172.669 182.349 171.518 181.731 170.685 180.85C169.851 179.982 168.551 178.772 168.551 178.772L170.685 177.368C170.685 177.368 172.824 179.456 173.991 180.14C175.158 180.824 176.672 181.205 178.398 181.205C180.101 181.205 181.517 180.85 182.684 180.14C183.863 179.443 183.934 179.517 184.434 178.452C184.934 177.386 184.92 176.795 184.92 174.427V173.362C183.979 174.677 182.667 175.755 181.309 176.465C179.952 177.162 178.548 177.531 177.024 177.531C175.238 177.531 173.576 177.083 172.004 176.11C170.432 175.124 169.188 173.743 168.331 172.086C167.473 170.429 167.106 168.627 167.106 166.641C167.106 164.655 167.56 162.788 168.453 161.078C169.346 159.355 170.555 158.053 172.126 157.054C173.71 156.054 175.396 155.515 177.146 155.515C178.599 155.515 179.936 155.909 181.187 156.58C182.449 157.238 183.753 158.106 184.92 159.632V155.371ZM173.473 159.302C174.688 158.54 175.974 158.237 177.391 158.237C178.748 158.237 180.008 158.566 181.187 159.302C182.366 160.039 183.361 160.986 184.003 162.262C184.647 163.524 185.042 164.879 185.042 166.497C185.042 168.982 184.183 171.152 182.779 172.678C181.385 174.203 179.567 174.927 177.269 174.927C174.994 174.927 173.188 174.216 171.759 172.678C170.33 171.139 169.555 169.113 169.555 166.759C169.555 165.208 169.966 163.827 170.657 162.498C171.348 161.157 172.259 160.052 173.473 159.302Z" fill="#6F3D26"/>
<ellipse cx="68.5418" cy="104.379" rx="45.825" ry="48.7625" fill="#6F3D26"/>
<path d="M68.1796 146.791C90.3093 146.791 108.119 127.797 108.119 104.369C108.119 80.9416 90.3093 61.9482 68.1796 61.9482C46.05 61.9482 27.9839 80.9416 27.9839 104.369C27.9839 127.797 46.05 146.791 68.1796 146.791Z" fill="#9CDCF9"/>
<path d="M141.445 98.2886L138.472 93.1914C131.614 96.2878 128.963 98.8591 125.279 104.17V93.1914H120.076V152.985H125.279V120.442L125.65 116.913L126.765 113.776C130.657 104.909 133.698 101.249 141.445 98.2886Z" fill="#6F3D26"/>
<path d="M143.989 152.986V93.9851H149.352C149.352 93.9851 149.254 96.1323 149.352 97.5017C156.934 87.5377 184.487 85.1934 188 110.982V152.986H182.637V110.982C183.562 103.363 163.961 83.4353 148.982 106.879V152.986H143.989Z" fill="#6F3D26" stroke="black"/>
<path d="M0 167.879L15.3385 153.419L17.6726 147.776L29.0097 132.963L36.012 123.794L43.0144 111.45C43.0144 111.45 47.0402 105.363 47.6826 102.985C48.325 100.608 47.6826 99.684 47.6826 97.695C47.6826 97.695 46.4483 95.7097 44.6816 94.5208C42.9148 93.3329 41.6806 90.2886 41.6806 90.2886C41.6806 90.2886 40.3346 87.4148 40.0134 86.0564C39.6921 84.6981 39.013 82.8822 39.013 82.8822H41.6806L46.0154 83.5876H49.6833C49.6833 83.5876 48.9535 83.6269 51.6839 84.6457C54.4143 85.6645 56.6856 84.6457 56.6856 84.6457L66.0221 66.6588L72.0241 52.9041V50.0826L78.0261 33.5064L80.0267 28.9215C80.0267 28.9215 84.559 8.71374 85.3619 5.99704C86.1655 3.28033 86.0287 15.1668 86.0287 15.1668C86.0287 15.1668 91.6103 -0.168395 93.698 0.00139966C95.7865 0.171193 90.3635 14.4615 90.3635 14.4615C90.3635 14.4615 98.5637 0.393373 99.3665 1.41214C100.169 2.4309 92.6976 17.9883 92.6976 17.9883C92.6976 17.9883 103.602 4.24671 105.369 4.5863C107.135 4.92589 97.4774 16.1599 96.0321 19.0464C94.5868 21.9329 109.913 7.96954 111.037 8.81851C112.162 9.66749 99.7126 21.5675 100.033 22.9259C100.355 24.2842 114.063 13.2729 114.705 14.4615C115.347 15.65 104.887 24.5326 105.369 25.042C105.851 25.5513 112.741 20.1568 113.705 21.5152C114.668 22.8736 113.705 22.9259 113.705 22.9259C113.705 22.9259 107.303 27.0879 111.037 26.8054C114.77 26.5229 115.15 27.2236 113.705 28.9215C112.259 30.6195 111.037 33.5064 111.037 33.5064L112.371 35.9752L109.37 40.2074L111.037 43.7343L109.37 44.7923V47.9665L108.703 50.0826L109.036 53.9621L107.703 54.6675V57.8417L106.369 58.1943V62.0739L103.701 62.7792V65.6007H102.368V69.4802L99.0331 70.5383V74.0651C98.7652 74.3481 98.0846 75.1232 97.6993 75.1232C97.314 75.1232 97.5389 77.222 97.6993 78.2974L95.6986 79.0027L95.0318 82.8822H92.6976L93.698 85.7037L91.0304 87.8198L90.0301 90.994H89.0297L87.696 93.1101L85.3619 95.5789L87.0291 96.2843L86.6956 98.0477L99.7 95.9316V99.4584L101.701 100.516L100.7 103.338L102.368 105.101L101.701 107.57C101.701 107.57 103.701 107.779 103.701 108.628V111.802L104.702 114.977L103.701 116.035V118.503L102.368 119.914L103.034 121.678L100.7 123.088L101.034 124.146L97.6993 125.557L96.699 126.968L92.6976 128.026L91.0304 128.731L89.0297 128.026L87.0291 130.142H84.3615L83.0277 128.026L80.6936 130.847L72.691 119.914V123.088L71.3572 124.146L70.3568 128.026L69.3565 128.731L70.0234 132.963L67.3558 133.669V136.49L65.3552 137.196V139.664L63.6879 141.781V143.897L61.0204 144.955V146.718L59.0197 148.834V152.008L57.0191 151.656C57.0191 151.656 58.01 154.427 57.0191 155.535C56.3378 156.297 54.3515 156.241 54.3515 156.241L53.3512 156.946V160.12L49.3498 160.826C49.3498 160.826 48.5346 160.865 49.0164 161.884C49.4982 162.902 49.3498 163.647 49.3498 163.647C49.3498 163.647 47.4731 164.888 46.3488 165.058C45.2245 165.227 46.3488 167.527 46.3488 167.527L44.3482 169.643C44.3482 169.643 43.0144 167.919 43.0144 168.937V172.111C43.0144 172.111 43.1261 172.96 41.6806 172.111C40.2351 171.262 37.8031 178.812 36.6789 178.812C35.5546 178.812 36.2967 175.795 35.0117 175.286C33.7268 174.776 33.7774 182.874 32.0107 183.045C30.2439 183.214 29.6399 171.237 28.6762 171.406C27.7126 171.576 26.6389 185.513 25.6752 185.513C24.7116 185.513 23.6502 172.111 23.0077 172.111C22.3652 172.111 20.1062 187.303 18.3395 187.982C16.5727 188.662 19.476 169.643 18.6729 169.643C17.8699 169.643 15.0556 186.036 12.004 185.866C8.95239 185.696 17.1859 171.649 15.3385 169.643C13.4909 167.636 9.18967 183.355 6.33545 185.513C3.48126 187.671 12.2135 172.752 13.3378 166.468C14.462 160.186 6.32495 176.436 1.66722 178.812C-2.99049 181.189 11.3371 161.884 11.3371 161.884L1.00033 169.643L0 167.879Z" fill="black"/>
</svg>
