<?xml version="1.0" encoding="UTF-8" standalone="no"?>
<!DOCTYPE svg PUBLIC "-//W3C//DTD SVG 1.1//EN" "http://www.w3.org/Graphics/SVG/1.1/DTD/svg11.dtd">
<svg width="205" height="183" viewBox="0 0 205 183" fill="none" xmlns="http://www.w3.org/2000/svg">
<path d="M68.8702 150.493C98.4907 150.493 122.501 126.47 122.501 96.8399C122.501 67.2094 98.4907 43.1871 68.8702 43.1871C39.2499 43.1871 15.2397 67.2094 15.2397 96.8399C15.2397 126.47 39.2499 150.493 68.8702 150.493Z" stroke="#6F3D26" stroke-width="5.63691" stroke-linejoin="round"/>
<path d="M117.031 96.7524C117.031 123.452 95.3962 145.096 68.7086 145.096C42.021 145.096 20.3865 123.452 20.3865 96.7524C20.3865 70.0533 42.021 48.4093 68.7086 48.4093C95.3962 48.4093 117.031 70.0533 117.031 96.7524Z" fill="#9CDCF9"/>
<path d="M68.8285 147.675C96.8756 147.675 119.61 124.929 119.61 96.8724C119.61 68.8159 96.8756 46.0697 68.8285 46.0697C40.7816 46.0697 18.0469 68.8159 18.0469 96.8724C18.0469 124.929 40.7816 147.675 68.8285 147.675Z" fill="#9CDCF9"/>
<path d="M3.96191 158.221L18.9262 145.122L21.1085 139.819L32.1758 126.408L39.0344 117.831L45.7372 106.447C45.7372 106.447 49.4783 100.833 50.1018 98.6497C50.7253 96.4665 50.1018 95.7984 50.1018 93.9714C50.1018 93.9714 49.1665 91.9441 47.4518 90.8524C45.7372 89.7608 44.3343 87.1097 44.3343 87.1097C44.3343 87.1097 43.2431 84.3027 42.9314 83.0552C42.6196 81.8076 41.8402 80.2481 41.8402 80.2481H44.3343L48.6989 81.0279H52.2841C52.2841 81.0279 51.3488 81.0279 53.9987 81.9635C56.6486 82.8992 58.8309 81.9635 58.8309 81.9635L68.1836 65.2774L73.9511 52.6458V49.9947L79.7186 34.868L81.5891 30.6574C81.5891 30.6574 85.9537 12.0999 86.7331 9.60476C87.5125 7.10963 87.5125 18.1818 87.5125 18.1818C87.5125 18.1818 92.8123 3.99072 94.8387 4.14666C96.8651 4.30261 91.5653 17.402 91.5653 17.402C91.5653 17.402 99.5151 4.6145 100.294 5.55017C101.074 6.48585 93.9035 20.521 93.9035 20.521C93.9035 20.521 104.659 7.88936 106.374 8.20125C108.088 8.51314 98.5798 19.1174 97.1769 21.7685C95.774 24.4196 110.738 11.3202 111.829 12.0999C112.921 12.8796 100.762 23.7958 101.074 25.0434C101.386 26.2909 114.635 16.3104 115.259 17.402C115.882 18.4937 105.906 26.7588 106.374 27.2266C106.841 27.6945 113.388 22.5482 114.323 23.7958C115.259 25.0434 114.323 25.0434 114.323 25.0434C114.323 25.0434 108.206 28.8896 111.829 28.6301C115.453 28.3707 115.726 29.098 114.323 30.6574C112.921 32.2169 111.829 34.868 111.829 34.868L112.921 37.0512L110.271 41.1058L111.829 44.2247L110.271 45.3163V48.2793L109.335 49.9947L109.803 53.7374L108.4 54.2052V57.1682L107.309 57.4801V61.0668L104.503 61.8465V64.4976H103.256V68.0844L100.139 69.02V72.2949C99.8788 72.5548 99.2657 73.0746 98.8916 73.0746C98.5175 73.0746 98.7357 75.0499 98.8916 76.0376L96.7093 76.6614L96.2416 80.2481H94.0594L94.8387 82.8992L92.3447 84.7706L91.4094 87.7335H90.4742L88.9154 89.7608L86.7331 91.7881L88.4477 92.5678L87.9801 94.1273L100.606 92.1V95.5308L102.633 96.4665L101.697 98.9616L103.256 100.677L102.633 102.86C102.633 102.86 104.659 103.172 104.659 103.952V106.759L105.594 109.722L104.659 110.658V112.997L103.256 114.244L103.88 115.804L101.697 117.051L102.165 118.299L98.8916 119.39L97.8004 120.794L94.0594 121.73L92.3447 122.509L90.4742 121.73L88.4477 123.757H85.7978L84.3949 121.73L82.2126 124.225L74.5746 114.244V117.051L73.1717 118.299L72.3923 121.73L71.3012 122.509L71.7688 126.252L69.2748 127.032V129.371L67.2483 130.307V132.334L65.8454 134.361V136.233L63.1955 137.168V139.04L61.325 140.755V143.874L59.1427 143.406C59.1427 143.406 60.1044 145.975 59.1427 146.993C58.4815 147.693 56.8045 147.773 56.8045 147.773L55.7134 148.396V151.359L51.9723 151.983C51.9723 151.983 51.037 151.827 51.5047 152.763C51.9723 153.699 51.9723 154.322 51.9723 154.322C51.9723 154.322 50.1018 155.57 49.0106 155.726C47.9195 155.882 49.0106 157.909 49.0106 157.909L47.1401 159.936C47.1401 159.936 45.7372 158.221 45.7372 159.157V162.276C45.7372 162.276 45.8931 163.055 44.4902 162.276C43.0873 161.496 40.7491 168.357 39.6579 168.357C38.5668 168.357 39.3462 165.706 38.0992 165.239C36.8521 164.771 36.8521 172.256 35.1375 172.412C33.4228 172.568 32.6434 161.34 31.7082 161.496C30.7729 161.652 29.8376 174.439 28.9024 174.439C27.9671 174.439 27.0318 162.276 26.4083 162.276C25.7848 162.276 23.4467 176.155 21.732 176.778C20.0173 177.402 22.979 159.936 22.1996 159.936C21.4202 159.936 18.4586 175.063 15.4969 174.907C12.5352 174.751 20.7192 161.779 18.9262 159.936C17.1331 158.094 12.9671 172.457 10.197 174.439C7.42695 176.421 15.8086 162.899 16.8998 157.129C17.9909 151.359 10.0412 166.174 5.52069 168.357C1.00023 170.541 15.0292 152.763 15.0292 152.763L4.89718 159.936L3.96191 158.221Z" fill="black"/>
<path d="M104.659 103.952C104.659 103.172 102.633 102.86 102.633 102.86L103.256 100.677L101.697 98.9616L102.633 96.4665L100.606 95.5308V92.1L87.9801 94.1273L88.4477 92.5678L86.7331 91.7881L88.9154 89.7608L90.4742 87.7335H91.4094L92.3447 84.7706L94.8387 82.8992L94.0594 80.2481H96.2416L96.7093 76.6614L98.8916 76.0376C98.7357 75.0499 98.5175 73.0746 98.8916 73.0746C99.2657 73.0746 99.8788 72.5548 100.139 72.2949V69.02L103.256 68.0844V64.4976H104.503V61.8465L107.309 61.0668V57.4801L108.4 57.1682V54.2052L109.803 53.7374L109.335 49.9947L110.271 48.2793V45.3163L111.829 44.2247L110.271 41.1058L112.921 37.0512L111.829 34.868C111.829 34.868 112.921 32.2169 114.323 30.6574C115.726 29.098 115.453 28.3707 111.829 28.6301C108.206 28.8896 114.323 25.0434 114.323 25.0434C114.323 25.0434 115.259 25.0434 114.323 23.7958C113.388 22.5482 106.841 27.6945 106.374 27.2266C105.906 26.7588 115.882 18.4937 115.259 17.402C114.635 16.3104 101.386 26.2909 101.074 25.0434C100.762 23.7958 112.921 12.8796 111.829 12.0999C110.738 11.3202 95.774 24.4196 97.1769 21.7685C98.5798 19.1174 108.088 8.51314 106.374 8.20125C104.659 7.88936 93.9035 20.521 93.9035 20.521C93.9035 20.521 101.074 6.48585 100.294 5.55017C99.5151 4.6145 91.5653 17.402 91.5653 17.402C91.5653 17.402 96.8651 4.30261 94.8387 4.14666C92.8123 3.99072 87.5125 18.1818 87.5125 18.1818C87.5125 18.1818 87.5125 7.10963 86.7331 9.60476C85.9537 12.0999 81.5891 30.6574 81.5891 30.6574L79.7186 34.868L73.9511 49.9947V52.6458L68.1836 65.2774L58.8309 81.9635C58.8309 81.9635 56.6486 82.8992 53.9987 81.9635C51.3488 81.0279 52.2841 81.0279 52.2841 81.0279H48.6989L44.3343 80.2481H41.8402C41.8402 80.2481 42.6196 81.8076 42.9314 83.0552C43.2431 84.3027 44.3343 87.1097 44.3343 87.1097C44.3343 87.1097 45.7372 89.7608 47.4518 90.8524C49.1665 91.9441 50.1018 93.9714 50.1018 93.9714C50.1018 95.7984 50.7253 96.4665 50.1018 98.6497C49.4783 100.833 45.7372 106.447 45.7372 106.447L39.0344 117.831L32.1758 126.408L21.1085 139.819L18.9262 145.122L3.96191 158.221L4.89718 159.936L15.0292 152.763C15.0292 152.763 1.00023 170.541 5.52069 168.357C10.0412 166.174 17.9909 151.359 16.8998 157.129C15.8086 162.899 7.42695 176.421 10.197 174.439C12.9671 172.457 17.1331 158.094 18.9262 159.936C20.7192 161.779 12.5352 174.751 15.4969 174.907C18.4586 175.063 21.4202 159.936 22.1996 159.936C22.979 159.936 20.0173 177.402 21.732 176.778C23.4467 176.155 25.7848 162.276 26.4083 162.276C27.0318 162.276 27.9671 174.439 28.9024 174.439C29.8376 174.439 30.7729 161.652 31.7082 161.496C32.6434 161.34 33.4228 172.568 35.1375 172.412C36.8521 172.256 36.8521 164.771 38.0992 165.239C39.3462 165.706 38.5668 168.357 39.6579 168.357C40.7491 168.357 43.0873 161.496 44.4902 162.276C45.8931 163.055 45.7372 162.276 45.7372 162.276M104.659 103.952C104.659 104.732 104.659 106.759 104.659 106.759M104.659 103.952V106.759M104.659 106.759L105.594 109.722L104.659 110.658V112.997L103.256 114.244L103.88 115.804L101.697 117.051L102.165 118.299L98.8916 119.39L97.8004 120.794L94.0594 121.73L92.3447 122.509L90.4742 121.73L88.4477 123.757H85.7978L84.3949 121.73L82.2126 124.225L74.5746 114.244V117.051L73.1717 118.299L72.3923 121.73L71.3012 122.509L71.7688 126.252L69.2748 127.032V129.371L67.2483 130.307V132.334L65.8454 134.361V136.233L63.1955 137.168V139.04L61.325 140.755V143.874L59.1427 143.406C59.1427 143.406 60.1044 145.975 59.1427 146.993C58.4815 147.693 56.8045 147.773 56.8045 147.773L55.7134 148.396V151.359L51.9723 151.983C51.9723 151.983 51.037 151.827 51.5047 152.763C51.9723 153.699 51.9723 154.322 51.9723 154.322C51.9723 154.322 50.1018 155.57 49.0106 155.726C47.9195 155.882 49.0106 157.909 49.0106 157.909L47.1401 159.936C47.1401 159.936 45.7372 158.221 45.7372 159.157M45.7372 159.157C45.7372 160.092 45.7372 162.276 45.7372 162.276M45.7372 159.157V162.276" stroke="black" stroke-width="0.119979"/>
<path d="M132.219 87.8447H138.978V96.4415C140.995 93.0532 143.123 90.5301 145.36 88.872C147.597 87.1779 149.93 86.3308 152.356 86.3308C154.184 86.3308 156.138 86.9977 158.218 88.3313L154.767 94.7113C153.38 94.0264 152.214 93.684 151.269 93.684C149.063 93.684 146.936 94.7293 144.887 96.8199C142.839 98.8745 141.279 102.082 140.208 106.444C139.388 109.796 138.978 116.573 138.978 126.773V146.67H132.219V87.8447ZM159.97 87.8447H166.588V98.3879C169.236 94.3509 172.166 91.3411 175.381 89.3586C178.595 87.3401 182.093 86.3308 185.875 86.3308C189.719 86.3308 193.123 87.4482 196.085 89.683C199.079 91.9178 201.285 94.9276 202.703 98.7123C204.121 102.497 204.83 108.39 204.83 116.392V146.67H198.26V118.609C198.26 111.833 198.008 107.309 197.504 105.038C196.716 101.145 195.234 98.2257 193.06 96.2793C190.886 94.2968 188.049 93.3055 184.551 93.3055C180.549 93.3055 176.957 94.8194 173.773 97.8472C170.622 100.875 168.542 104.624 167.534 109.093C166.903 112.013 166.588 117.348 166.588 125.097V146.67H159.97V87.8447Z" fill="#6F3D26"/>
<mask id="path-8-inside-1" fill="white">
<path d="M118.378 141.52V144.453C117.42 143.982 116.6 143.746 115.915 143.746C115.405 143.746 114.982 143.868 114.647 144.11C114.311 144.338 114.099 144.61 114.012 144.924C113.925 145.223 113.882 146.036 113.882 147.363V150.51H118.117V153.078H113.863V173.796H111.251V153.078H108.583V150.51H111.251V146.871C111.251 145.202 111.382 144.01 111.643 143.297C111.916 142.583 112.371 142.013 113.005 141.585C113.652 141.142 114.429 140.921 115.337 140.921C116.183 140.921 117.196 141.121 118.378 141.52ZM130.115 149.91C133.237 149.91 135.824 151.209 137.877 153.806C139.742 156.174 140.675 158.978 140.675 162.217C140.675 165.47 139.686 168.317 137.708 170.757C135.743 173.183 133.212 174.395 130.115 174.395C127.005 174.395 124.462 173.183 122.484 170.757C120.519 168.317 119.536 165.47 119.536 162.217C119.536 158.992 120.47 156.196 122.335 153.827C124.387 151.216 126.981 149.91 130.115 149.91ZM130.115 152.843C127.951 152.843 126.091 153.763 124.536 155.604C122.982 157.444 122.205 159.67 122.205 162.281C122.205 163.965 122.559 165.535 123.268 166.99C123.977 168.445 124.935 169.573 126.141 170.372C127.348 171.156 128.672 171.549 130.115 171.549C131.558 171.549 132.883 171.156 134.089 170.372C135.296 169.573 136.253 168.445 136.962 166.99C137.672 165.535 138.026 163.965 138.026 162.281C138.026 159.67 137.242 157.444 135.675 155.604C134.12 153.763 132.267 152.843 130.115 152.843ZM143.027 150.51H145.695V153.913C146.491 152.571 147.331 151.573 148.214 150.916C149.097 150.246 150.018 149.91 150.975 149.91C151.697 149.91 152.468 150.174 153.289 150.702L151.927 153.228C151.38 152.957 150.919 152.821 150.546 152.821C149.676 152.821 148.836 153.235 148.027 154.063C147.219 154.876 146.604 156.146 146.181 157.872C145.857 159.199 145.695 161.882 145.695 165.92V173.796H143.027V150.51ZM153.589 140.921H156.201V173.796H153.589V140.921ZM180.327 150.51V173.796H177.752V169.794C176.657 171.321 175.426 172.469 174.058 173.24C172.702 174.01 171.216 174.395 169.598 174.395C166.725 174.395 164.269 173.204 162.229 170.821C160.201 168.424 159.187 165.513 159.187 162.089C159.187 158.736 160.214 155.868 162.266 153.485C164.318 151.102 166.787 149.91 169.673 149.91C171.34 149.91 172.845 150.317 174.188 151.13C175.544 151.944 176.732 153.164 177.752 154.79V150.51H180.327ZM169.878 152.8C168.423 152.8 167.08 153.214 165.848 154.041C164.617 154.854 163.635 156.003 162.901 157.487C162.179 158.971 161.819 160.54 161.819 162.196C161.819 163.837 162.186 165.406 162.919 166.904C163.653 168.403 164.636 169.573 165.867 170.414C167.111 171.242 168.442 171.656 169.86 171.656C171.29 171.656 172.646 171.242 173.927 170.414C175.208 169.587 176.191 168.467 176.875 167.054C177.571 165.642 177.92 164.051 177.92 162.281C177.92 159.584 177.142 157.33 175.587 155.518C174.045 153.706 172.142 152.8 169.878 152.8ZM202.176 150.51H204.806V169.066C204.806 172.334 204.557 174.724 204.06 176.236C203.375 178.376 202.188 180.024 200.497 181.18C198.804 182.336 196.771 182.914 194.396 182.914C192.654 182.914 191.087 182.628 189.694 182.058C188.313 181.501 187.188 180.745 186.317 179.789C185.446 178.847 184.644 177.463 183.91 175.637H186.746C187.517 177.178 188.512 178.319 189.731 179.061C190.95 179.803 192.462 180.174 194.265 180.174C196.043 180.174 197.542 179.789 198.761 179.018C199.992 178.262 200.87 177.306 201.392 176.15C201.915 174.995 202.176 173.133 202.176 170.564V169.366C201.192 170.792 199.992 171.891 198.575 172.662C197.157 173.418 195.652 173.796 194.06 173.796C192.194 173.796 190.44 173.268 188.798 172.212C187.156 171.142 185.888 169.708 184.992 167.91C184.096 166.112 183.649 164.136 183.649 161.982C183.649 159.827 184.115 157.822 185.048 155.967C185.981 154.098 187.268 152.621 188.91 151.537C190.565 150.453 192.306 149.91 194.134 149.91C195.652 149.91 197.063 150.274 198.37 151.002C199.688 151.715 200.957 152.9 202.176 154.555V150.51ZM194.47 152.8C192.99 152.8 191.615 153.214 190.347 154.041C189.078 154.854 188.083 155.989 187.362 157.444C186.64 158.885 186.279 160.448 186.279 162.131C186.279 164.685 187.026 166.797 188.518 168.467C190.011 170.136 191.945 170.971 194.321 170.971C196.722 170.971 198.649 170.143 200.105 168.488C201.572 166.833 202.306 164.657 202.306 161.96C202.306 160.205 201.971 158.643 201.298 157.273C200.627 155.889 199.676 154.797 198.444 153.998C197.212 153.199 195.888 152.8 194.47 152.8Z"/>
</mask>
<path d="M118.378 141.52V144.453C117.42 143.982 116.6 143.746 115.915 143.746C115.405 143.746 114.982 143.868 114.647 144.11C114.311 144.338 114.099 144.61 114.012 144.924C113.925 145.223 113.882 146.036 113.882 147.363V150.51H118.117V153.078H113.863V173.796H111.251V153.078H108.583V150.51H111.251V146.871C111.251 145.202 111.382 144.01 111.643 143.297C111.916 142.583 112.371 142.013 113.005 141.585C113.652 141.142 114.429 140.921 115.337 140.921C116.183 140.921 117.196 141.121 118.378 141.52ZM130.115 149.91C133.237 149.91 135.824 151.209 137.877 153.806C139.742 156.174 140.675 158.978 140.675 162.217C140.675 165.47 139.686 168.317 137.708 170.757C135.743 173.183 133.212 174.395 130.115 174.395C127.005 174.395 124.462 173.183 122.484 170.757C120.519 168.317 119.536 165.47 119.536 162.217C119.536 158.992 120.47 156.196 122.335 153.827C124.387 151.216 126.981 149.91 130.115 149.91ZM130.115 152.843C127.951 152.843 126.091 153.763 124.536 155.604C122.982 157.444 122.205 159.67 122.205 162.281C122.205 163.965 122.559 165.535 123.268 166.99C123.977 168.445 124.935 169.573 126.141 170.372C127.348 171.156 128.672 171.549 130.115 171.549C131.558 171.549 132.883 171.156 134.089 170.372C135.296 169.573 136.253 168.445 136.962 166.99C137.672 165.535 138.026 163.965 138.026 162.281C138.026 159.67 137.242 157.444 135.675 155.604C134.12 153.763 132.267 152.843 130.115 152.843ZM143.027 150.51H145.695V153.913C146.491 152.571 147.331 151.573 148.214 150.916C149.097 150.246 150.018 149.91 150.975 149.91C151.697 149.91 152.468 150.174 153.289 150.702L151.927 153.228C151.38 152.957 150.919 152.821 150.546 152.821C149.676 152.821 148.836 153.235 148.027 154.063C147.219 154.876 146.604 156.146 146.181 157.872C145.857 159.199 145.695 161.882 145.695 165.92V173.796H143.027V150.51ZM153.589 140.921H156.201V173.796H153.589V140.921ZM180.327 150.51V173.796H177.752V169.794C176.657 171.321 175.426 172.469 174.058 173.24C172.702 174.01 171.216 174.395 169.598 174.395C166.725 174.395 164.269 173.204 162.229 170.821C160.201 168.424 159.187 165.513 159.187 162.089C159.187 158.736 160.214 155.868 162.266 153.485C164.318 151.102 166.787 149.91 169.673 149.91C171.34 149.91 172.845 150.317 174.188 151.13C175.544 151.944 176.732 153.164 177.752 154.79V150.51H180.327ZM169.878 152.8C168.423 152.8 167.08 153.214 165.848 154.041C164.617 154.854 163.635 156.003 162.901 157.487C162.179 158.971 161.819 160.54 161.819 162.196C161.819 163.837 162.186 165.406 162.919 166.904C163.653 168.403 164.636 169.573 165.867 170.414C167.111 171.242 168.442 171.656 169.86 171.656C171.29 171.656 172.646 171.242 173.927 170.414C175.208 169.587 176.191 168.467 176.875 167.054C177.571 165.642 177.92 164.051 177.92 162.281C177.92 159.584 177.142 157.33 175.587 155.518C174.045 153.706 172.142 152.8 169.878 152.8ZM202.176 150.51H204.806V169.066C204.806 172.334 204.557 174.724 204.06 176.236C203.375 178.376 202.188 180.024 200.497 181.18C198.804 182.336 196.771 182.914 194.396 182.914C192.654 182.914 191.087 182.628 189.694 182.058C188.313 181.501 187.188 180.745 186.317 179.789C185.446 178.847 184.644 177.463 183.91 175.637H186.746C187.517 177.178 188.512 178.319 189.731 179.061C190.95 179.803 192.462 180.174 194.265 180.174C196.043 180.174 197.542 179.789 198.761 179.018C199.992 178.262 200.87 177.306 201.392 176.15C201.915 174.995 202.176 173.133 202.176 170.564V169.366C201.192 170.792 199.992 171.891 198.575 172.662C197.157 173.418 195.652 173.796 194.06 173.796C192.194 173.796 190.44 173.268 188.798 172.212C187.156 171.142 185.888 169.708 184.992 167.91C184.096 166.112 183.649 164.136 183.649 161.982C183.649 159.827 184.115 157.822 185.048 155.967C185.981 154.098 187.268 152.621 188.91 151.537C190.565 150.453 192.306 149.91 194.134 149.91C195.652 149.91 197.063 150.274 198.37 151.002C199.688 151.715 200.957 152.9 202.176 154.555V150.51ZM194.47 152.8C192.99 152.8 191.615 153.214 190.347 154.041C189.078 154.854 188.083 155.989 187.362 157.444C186.64 158.885 186.279 160.448 186.279 162.131C186.279 164.685 187.026 166.797 188.518 168.467C190.011 170.136 191.945 170.971 194.321 170.971C196.722 170.971 198.649 170.143 200.105 168.488C201.572 166.833 202.306 164.657 202.306 161.96C202.306 160.205 201.971 158.643 201.298 157.273C200.627 155.889 199.676 154.797 198.444 153.998C197.212 153.199 195.888 152.8 194.47 152.8Z" fill="#6F3D26" fill-opacity="0.81" stroke="#6F3D26" stroke-width="0.239957" mask="url(#path-8-inside-1)"/>
</svg>